<svg xmlns="http://www.w3.org/2000/svg" xmlns:xlink="http://www.w3.org/1999/xlink" version="1.1" x="0px" y="0px" viewBox="0 0 100 125" enable-background="new 0 0 100 100" xml:space="preserve"><g><path d="M27.2,42.9c10.2,0,18.6-9,18.6-20.2c0-11.1-8.4-20.2-18.6-20.2s-18.6,9-18.6,20.2S16.9,42.9,27.2,42.9z M27.2,10.2   c6.1,0,11.1,5.7,11.1,12.6s-4.9,12.6-11.1,12.6s-11.1-5.7-11.1-12.6S21,10.2,27.2,10.2z"/><path d="M72.8,57.1c-10.2,0-18.6,9-18.6,20.2s8.4,20.2,18.6,20.2s18.6-9,18.6-20.2S83.1,57.1,72.8,57.1z M72.8,89.8   c-6.1,0-11.1-5.7-11.1-12.6c0-7,4.9-12.6,11.1-12.6s11.1,5.7,11.1,12.6C83.9,84.2,79,89.8,72.8,89.8z"/><path d="M77.2,5.6L13.9,87.4c-2.8,3.6-0.4,8.9,4.3,9h0.1c1.8,0,3.5-0.7,4.6-2.2l63.1-81.8c2.8-3.6,0.4-8.9-4.3-9l0,0   C79.9,3.5,78.3,4.2,77.2,5.6z"/></g><text x="0" y="115" fill="#000000" font-size="5px" font-weight="bold" font-family="'Helvetica Neue', Helvetica, Arial-Unicode, Arial, Sans-serif">Created by Nathan Thomson</text><text x="0" y="120" fill="#000000" font-size="5px" font-weight="bold" font-family="'Helvetica Neue', Helvetica, Arial-Unicode, Arial, Sans-serif">from the Noun Project</text></svg>